<svg width="173" height="28" viewBox="0 0 173 28" fill="none" xmlns="http://www.w3.org/2000/svg">
<path d="M22.4522 27.9204C21.4767 28.6161 15.2176 24.2058 14.0189 24.1961C12.8201 24.1865 6.49061 28.4954 5.52652 27.784C4.56243 27.0726 6.82896 19.7659 6.46776 18.6246C6.10656 17.4833 0.0464324 12.804 0.426043 11.6687C0.805737 10.5333 8.46558 10.4278 9.44105 9.73209C10.4165 9.03642 13.0007 1.83561 14.1996 1.84522C15.3982 1.85492 17.8657 9.09642 18.8298 9.8078C19.7939 10.5191 27.4511 10.748 27.8124 11.8894C28.1736 13.0307 22.0387 17.6117 21.659 18.7471C21.2794 19.8824 23.4276 27.2246 22.4522 27.9204Z" fill="#42B0A8"/>
<path d="M59.2656 27.2641C58.2444 27.9914 51.6924 23.3809 50.4376 23.3708C49.1827 23.3607 42.557 27.8652 41.5478 27.1215C40.5386 26.3779 42.9112 18.7395 42.5331 17.5464C42.155 16.3533 35.8112 11.4616 36.2086 10.2747C36.606 9.0878 44.6244 8.97756 45.6455 8.25023C46.6666 7.52299 49.3718 -0.00466482 50.6267 0.00538114C51.8815 0.0155145 54.4644 7.58571 55.4736 8.32938C56.4829 9.07295 64.4985 9.31231 64.8767 10.5054C65.2548 11.6985 58.8328 16.4875 58.4353 17.6744C58.0379 18.8613 60.2867 26.5368 59.2656 27.2641Z" fill="#42B0A8"/>
<path d="M96.3627 27.6442C95.3416 28.3812 88.7896 23.7093 87.5348 23.699C86.2799 23.6888 79.6541 28.2533 78.6449 27.4997C77.6357 26.7461 80.0083 19.0061 79.6302 17.7971C79.2521 16.5881 72.9084 11.6313 73.3057 10.4286C73.7032 9.22584 81.7215 9.11413 82.7427 8.37711C83.7638 7.64019 86.469 0.0122914 87.7239 0.0224711C88.9787 0.0327394 91.5616 7.70375 92.5708 8.45731C93.58 9.21079 101.596 9.45333 101.974 10.6623C102.352 11.8713 95.9299 16.7241 95.5325 17.9268C95.1351 19.1295 97.3838 26.9072 96.3627 27.6442Z" fill="#42B0A8"/>
<path d="M132.143 27.6442C131.176 28.3812 124.969 23.7093 123.78 23.699C122.591 23.6888 116.314 28.2533 115.358 27.4997C114.402 26.7461 116.649 19.0061 116.291 17.7971C115.933 16.5881 109.923 11.6313 110.3 10.4286C110.676 9.22584 118.273 9.11413 119.24 8.37711C120.207 7.64019 122.77 0.0122914 123.959 0.0224711C125.148 0.0327394 127.595 7.70375 128.551 8.45731C129.507 9.21079 137.101 9.45333 137.459 10.6623C137.817 11.8713 131.733 16.7241 131.357 17.9268C130.98 19.1295 133.111 26.9072 132.143 27.6442Z" fill="#42B0A8"/>
<path d="M167.325 27.6442C166.304 28.3812 159.752 23.7093 158.497 23.699C157.242 23.6888 150.617 28.2533 149.607 27.4997C148.598 26.7461 150.971 19.0061 150.593 17.7971C150.215 16.5881 143.871 11.6313 144.268 10.4286C144.666 9.22584 152.684 9.11413 153.705 8.37711C154.726 7.64019 157.431 0.0122914 158.686 0.0224711C159.941 0.0327394 162.524 7.70375 163.533 8.45731C164.542 9.21079 172.558 9.45333 172.936 10.6623C173.314 11.8713 166.892 16.7241 166.495 17.9268C166.098 19.1295 168.346 26.9072 167.325 27.6442Z" fill="#42B0A8"/>
</svg>
